<svg width="1715" height="553" viewBox="0 0 1715 553" fill="none" xmlns="http://www.w3.org/2000/svg">
  <g filter="url(#filter0_d_1_19)">
    <path d="M10 272V6H544.5V538.5H280" stroke="#8DC5E9" stroke-width="12" />
  </g>
  <path
    d="M219.85 282.1C219.85 304 219.85 325.15 219.85 345.55C220.15 365.95 220.45 386.05 220.75 405.85H256.3C291.1 405.85 317.8 394.6 336.4 372.1C355 349.3 364.3 317.5 364.3 276.7C364.3 234.4 355.15 202.15 336.85 179.95C318.55 157.75 293.05 146.65 260.35 146.65H220.75C220.45 165.85 220.15 185.5 219.85 205.6C219.85 225.4 219.85 245.35 219.85 265.45V282.1ZM134.8 144.4V125.95H267.55C296.35 125.95 321.7 131.8 343.6 143.5C365.5 154.9 382.6 171.85 394.9 194.35C407.2 216.55 413.35 244 413.35 276.7C413.35 309.1 406.6 336.55 393.1 359.05C379.6 381.25 361.15 398.2 337.75 409.9C314.65 421.3 288.4 427 259 427H134.8V408.55L176.2 403.6C176.8 384.4 177.1 364.9 177.1 345.1C177.1 325 177.1 304 177.1 282.1V265.45C177.1 245.95 177.1 226.6 177.1 207.4C177.1 187.9 176.8 168.55 176.2 149.35L134.8 144.4Z"
    fill="#8DC5E9" />
  <path
    d="M652.6 33.8V27.65H727.3L728.35 54.2H719.8L716.5 35.15H681.25C681.15 41.55 681.05 47.95 680.95 54.35C680.95 60.75 680.95 67.05 680.95 73.25H703L705.1 59H712V94.4H705.1L703.15 80.3H680.95C680.95 87.8 680.95 94.85 680.95 101.45C681.05 107.95 681.15 114.3 681.25 120.5H719.5L722.8 101.3H731.35L730.3 128H652.6V121.85L666.4 120.2C666.6 113.9 666.7 107.5 666.7 101C666.7 94.5 666.7 88 666.7 81.5V74.15C666.7 67.65 666.7 61.2 666.7 54.8C666.7 48.3 666.6 41.85 666.4 35.45L652.6 33.8ZM742.231 128V121.85L755.731 119.9V35.45L742.231 33.8V27.65H769.981L803.581 110.15L835.381 27.65H864.931V33.8L851.131 35.45C851.031 41.75 850.931 48.15 850.831 54.65C850.831 61.15 850.831 67.65 850.831 74.15V81.5C850.831 87.9 850.831 94.35 850.831 100.85C850.931 107.25 851.031 113.7 851.131 120.2L864.931 121.85V128H824.131V121.85L836.731 120.2C836.931 113.9 837.031 107.5 837.031 101C837.031 94.5 837.031 88.05 837.031 81.65V44.3L804.481 128H796.981L762.631 44.3L763.531 72.65V119.9L775.831 121.85V128H742.231ZM915.982 34.55H906.982C906.882 40.95 906.782 47.5 906.682 54.2C906.682 60.8 906.682 67.45 906.682 74.15V81.35H916.582C925.682 81.35 932.182 79.15 936.082 74.75C939.982 70.25 941.932 64.5 941.932 57.5C941.932 50.2 939.832 44.55 935.632 40.55C931.532 36.55 924.982 34.55 915.982 34.55ZM878.332 33.8V27.65H918.682C931.382 27.65 940.882 30.45 947.182 36.05C953.582 41.55 956.782 48.7 956.782 57.5C956.782 63.1 955.382 68.25 952.582 72.95C949.782 77.65 945.282 81.4 939.082 84.2C932.982 87 924.782 88.4 914.482 88.4H906.682C906.682 93.8 906.682 99.1 906.682 104.3C906.782 109.5 906.882 114.8 906.982 120.2L920.932 121.85V128H878.332V121.85L892.132 120.2C892.332 113.9 892.432 107.5 892.432 101C892.432 94.5 892.432 88 892.432 81.5V74.15C892.432 67.65 892.432 61.2 892.432 54.8C892.432 48.3 892.332 41.85 892.132 35.45L878.332 33.8ZM1013.16 130.25C1007.36 130.25 1001.71 129.15 996.213 126.95C990.713 124.65 985.763 121.3 981.363 116.9C976.963 112.5 973.463 107.05 970.863 100.55C968.363 93.95 967.113 86.35 967.113 77.75C967.113 69.55 968.413 62.2 971.013 55.7C973.613 49.2 977.063 43.7 981.363 39.2C985.763 34.7 990.713 31.3 996.213 29C1001.71 26.6 1007.36 25.4 1013.16 25.4C1018.96 25.4 1024.56 26.55 1029.96 28.85C1035.46 31.05 1040.36 34.35 1044.66 38.75C1049.06 43.15 1052.56 48.6 1055.16 55.1C1057.76 61.6 1059.06 69.15 1059.06 77.75C1059.06 85.95 1057.76 93.3 1055.16 99.8C1052.66 106.3 1049.21 111.85 1044.81 116.45C1040.51 120.95 1035.61 124.4 1030.11 126.8C1024.61 129.1 1018.96 130.25 1013.16 130.25ZM1013.16 122.75C1018.36 122.75 1022.81 121.5 1026.51 119C1030.31 116.4 1033.36 113 1035.66 108.8C1038.06 104.5 1039.81 99.7 1040.91 94.4C1042.01 89 1042.56 83.45 1042.56 77.75C1042.56 72.15 1042.01 66.7 1040.91 61.4C1039.81 56 1038.06 51.15 1035.66 46.85C1033.36 42.55 1030.31 39.15 1026.51 36.65C1022.81 34.15 1018.36 32.9 1013.16 32.9C1007.96 32.9 1003.46 34.15 999.662 36.65C995.963 39.15 992.913 42.55 990.513 46.85C988.113 51.15 986.313 56 985.113 61.4C984.013 66.7 983.463 72.15 983.463 77.75C983.463 83.45 984.013 89 985.113 94.4C986.313 99.7 988.113 104.5 990.513 108.8C992.913 113 995.963 116.4 999.662 119C1003.46 121.5 1007.96 122.75 1013.16 122.75ZM1170.48 33.8V27.65H1204.53V33.8L1191.93 35.6L1166.58 129.05H1160.13L1134.18 51.35L1109.73 129.05H1103.28L1076.28 35.3L1063.83 33.8V27.65H1104.63V33.8L1090.83 35.45L1109.28 104.3L1132.08 35.6L1117.08 33.8V27.65H1157.88V33.8L1142.73 35.6L1165.08 105.05L1184.13 35.75L1170.48 33.8ZM1212.46 33.8V27.65H1287.16L1288.21 54.2H1279.66L1276.36 35.15H1241.11C1241.01 41.55 1240.91 47.95 1240.81 54.35C1240.81 60.75 1240.81 67.05 1240.81 73.25H1262.86L1264.96 59H1271.86V94.4H1264.96L1263.01 80.3H1240.81C1240.81 87.8 1240.81 94.85 1240.81 101.45C1240.91 107.95 1241.01 114.3 1241.11 120.5H1279.36L1282.66 101.3H1291.21L1290.16 128H1212.46V121.85L1226.26 120.2C1226.46 113.9 1226.56 107.5 1226.56 101C1226.56 94.5 1226.56 88 1226.56 81.5V74.15C1226.56 67.65 1226.56 61.2 1226.56 54.8C1226.56 48.3 1226.46 41.85 1226.26 35.45L1212.46 33.8ZM1344.39 34.55H1331.49C1331.39 41.15 1331.29 47.75 1331.19 54.35C1331.19 60.85 1331.19 67.65 1331.19 74.75H1342.74C1350.84 74.75 1356.79 72.8 1360.59 68.9C1364.49 65 1366.44 60.05 1366.44 54.05C1366.44 47.75 1364.69 42.95 1361.19 39.65C1357.69 36.25 1352.09 34.55 1344.39 34.55ZM1302.84 33.8V27.65H1344.84C1356.34 27.65 1365.29 29.95 1371.69 34.55C1378.09 39.15 1381.29 45.6 1381.29 53.9C1381.29 59.7 1379.19 65 1374.99 69.8C1370.79 74.6 1364.49 77.75 1356.09 79.25C1360.49 80.15 1364.09 82.1 1366.89 85.1C1369.79 88 1372.09 92.4 1373.79 98.3L1380.24 120.5L1391.79 121.85V128C1390.29 128.4 1388.59 128.75 1386.69 129.05C1384.89 129.35 1382.84 129.5 1380.54 129.5C1375.84 129.5 1372.29 128.8 1369.89 127.4C1367.59 126 1365.99 123.5 1365.09 119.9L1359.09 95.9C1358.19 91.8 1356.89 88.75 1355.19 86.75C1353.49 84.65 1351.29 83.25 1348.59 82.55C1345.99 81.85 1342.64 81.5 1338.54 81.5H1331.19C1331.19 88.7 1331.19 95.45 1331.19 101.75C1331.29 108.05 1331.39 114.2 1331.49 120.2L1345.29 121.85V128H1302.84V121.85L1316.64 120.2C1316.84 113.9 1316.94 107.5 1316.94 101C1316.94 94.5 1316.94 88 1316.94 81.5V74.15C1316.94 67.65 1316.94 61.2 1316.94 54.8C1316.94 48.3 1316.84 41.85 1316.64 35.45L1302.84 33.8ZM648.25 221.8V215.65H690.55V221.8L676.3 223.45L697.15 268.9L718.6 223.6L705.1 221.8V215.65H739.45V221.8L726.25 223.75L700.75 276.55C700.75 282.35 700.75 287.9 700.75 293.2C700.85 298.4 700.95 303.4 701.05 308.2L716.35 309.85V316H671.05V309.85L686.35 308.2C686.55 303.5 686.65 298.6 686.65 293.5C686.65 288.4 686.65 282.95 686.65 277.15L660.1 223.15L648.25 221.8ZM786.551 318.25C780.751 318.25 775.101 317.15 769.601 314.95C764.101 312.65 759.151 309.3 754.751 304.9C750.351 300.5 746.851 295.05 744.251 288.55C741.751 281.95 740.501 274.35 740.501 265.75C740.501 257.55 741.801 250.2 744.401 243.7C747.001 237.2 750.451 231.7 754.751 227.2C759.151 222.7 764.101 219.3 769.601 217C775.101 214.6 780.751 213.4 786.551 213.4C792.351 213.4 797.951 214.55 803.351 216.85C808.851 219.05 813.751 222.35 818.051 226.75C822.451 231.15 825.951 236.6 828.551 243.1C831.151 249.6 832.451 257.15 832.451 265.75C832.451 273.95 831.151 281.3 828.551 287.8C826.051 294.3 822.601 299.85 818.201 304.45C813.901 308.95 809.001 312.4 803.501 314.8C798.001 317.1 792.351 318.25 786.551 318.25ZM786.551 310.75C791.751 310.75 796.201 309.5 799.901 307C803.701 304.4 806.751 301 809.051 296.8C811.451 292.5 813.201 287.7 814.301 282.4C815.401 277 815.951 271.45 815.951 265.75C815.951 260.15 815.401 254.7 814.301 249.4C813.201 244 811.451 239.15 809.051 234.85C806.751 230.55 803.701 227.15 799.901 224.65C796.201 222.15 791.751 220.9 786.551 220.9C781.351 220.9 776.851 222.15 773.051 224.65C769.351 227.15 766.301 230.55 763.901 234.85C761.501 239.15 759.701 244 758.501 249.4C757.401 254.7 756.851 260.15 756.851 265.75C756.851 271.45 757.401 277 758.501 282.4C759.701 287.7 761.501 292.5 763.901 296.8C766.301 301 769.351 304.4 773.051 307C776.851 309.5 781.351 310.75 786.551 310.75ZM904.526 221.8V215.65H940.526V221.8L927.476 223.45V274.9C927.476 285.4 925.926 293.85 922.826 300.25C919.726 306.55 915.476 311.15 910.076 314.05C904.676 316.85 898.526 318.25 891.626 318.25C884.426 318.25 878.076 316.85 872.576 314.05C867.076 311.25 862.776 306.9 859.676 301C856.676 295.1 855.176 287.5 855.176 278.2V262C855.176 255.5 855.176 249.05 855.176 242.65C855.176 236.15 855.076 229.7 854.876 223.3L842.426 221.8V215.65H884.876V221.8L869.576 223.6C869.476 229.9 869.376 236.25 869.276 242.65C869.276 249.05 869.276 255.5 869.276 262V273.85C869.276 282.35 870.276 289.1 872.276 294.1C874.376 299 877.276 302.5 880.976 304.6C884.676 306.6 889.076 307.6 894.176 307.6C902.676 307.6 909.076 304.9 913.376 299.5C917.676 294 919.826 284.6 919.826 271.3V223.75L904.526 221.8ZM990.781 222.55H977.881C977.781 229.15 977.681 235.75 977.581 242.35C977.581 248.85 977.581 255.65 977.581 262.75H989.131C997.231 262.75 1003.18 260.8 1006.98 256.9C1010.88 253 1012.83 248.05 1012.83 242.05C1012.83 235.75 1011.08 230.95 1007.58 227.65C1004.08 224.25 998.481 222.55 990.781 222.55ZM949.231 221.8V215.65H991.231C1002.73 215.65 1011.68 217.95 1018.08 222.55C1024.48 227.15 1027.68 233.6 1027.68 241.9C1027.68 247.7 1025.58 253 1021.38 257.8C1017.18 262.6 1010.88 265.75 1002.48 267.25C1006.88 268.15 1010.48 270.1 1013.28 273.1C1016.18 276 1018.48 280.4 1020.18 286.3L1026.63 308.5L1038.18 309.85V316C1036.68 316.4 1034.98 316.75 1033.08 317.05C1031.28 317.35 1029.23 317.5 1026.93 317.5C1022.23 317.5 1018.68 316.8 1016.28 315.4C1013.98 314 1012.38 311.5 1011.48 307.9L1005.48 283.9C1004.58 279.8 1003.28 276.75 1001.58 274.75C999.881 272.65 997.681 271.25 994.981 270.55C992.381 269.85 989.031 269.5 984.931 269.5H977.581C977.581 276.7 977.581 283.45 977.581 289.75C977.681 296.05 977.781 302.2 977.881 308.2L991.681 309.85V316H949.231V309.85L963.031 308.2C963.231 301.9 963.331 295.5 963.331 289C963.331 282.5 963.331 276 963.331 269.5V262.15C963.331 255.65 963.331 249.2 963.331 242.8C963.331 236.3 963.231 229.85 963.031 223.45L949.231 221.8ZM649 430.35L650.2 403.65H732.4L733.6 430.35H724.9L721.6 411.15H698.65C698.55 417.55 698.45 424 698.35 430.5C698.35 437 698.35 443.55 698.35 450.15V457.5C698.35 463.9 698.35 470.35 698.35 476.85C698.45 483.25 698.55 489.7 698.65 496.2L713.95 497.85V504H668.65V497.85L683.95 496.2C684.15 489.8 684.25 483.4 684.25 477C684.25 470.5 684.25 464 684.25 457.5V450.15C684.25 443.65 684.25 437.15 684.25 430.65C684.25 424.15 684.15 417.65 683.95 411.15H661L657.7 430.35H649ZM784.677 410.55H771.777C771.677 417.15 771.577 423.75 771.477 430.35C771.477 436.85 771.477 443.65 771.477 450.75H783.027C791.127 450.75 797.077 448.8 800.877 444.9C804.777 441 806.727 436.05 806.727 430.05C806.727 423.75 804.977 418.95 801.477 415.65C797.977 412.25 792.377 410.55 784.677 410.55ZM743.127 409.8V403.65H785.127C796.627 403.65 805.577 405.95 811.977 410.55C818.377 415.15 821.577 421.6 821.577 429.9C821.577 435.7 819.477 441 815.277 445.8C811.077 450.6 804.777 453.75 796.377 455.25C800.777 456.15 804.377 458.1 807.177 461.1C810.077 464 812.377 468.4 814.077 474.3L820.527 496.5L832.077 497.85V504C830.577 504.4 828.877 504.75 826.977 505.05C825.177 505.35 823.127 505.5 820.827 505.5C816.127 505.5 812.577 504.8 810.177 503.4C807.877 502 806.277 499.5 805.377 495.9L799.377 471.9C798.477 467.8 797.177 464.75 795.477 462.75C793.777 460.65 791.577 459.25 788.877 458.55C786.277 457.85 782.927 457.5 778.827 457.5H771.477C771.477 464.7 771.477 471.45 771.477 477.75C771.577 484.05 771.677 490.2 771.777 496.2L785.577 497.85V504H743.127V497.85L756.927 496.2C757.127 489.9 757.227 483.5 757.227 477C757.227 470.5 757.227 464 757.227 457.5V450.15C757.227 443.65 757.227 437.2 757.227 430.8C757.227 424.3 757.127 417.85 756.927 411.45L743.127 409.8ZM882.047 419.7L866.897 464.4H897.047L882.047 419.7ZM836.447 504V497.85L849.047 495.9L880.997 402.9H890.447L922.397 496.5L933.647 497.85V504H892.847V497.85L907.547 496.05L899.297 471.45H864.497L856.097 495.9L870.797 497.85V504H836.447ZM968.792 455.7C968.792 463 968.792 470.05 968.792 476.85C968.892 483.65 968.992 490.35 969.092 496.95H980.942C992.542 496.95 1001.44 493.2 1007.64 485.7C1013.84 478.1 1016.94 467.5 1016.94 453.9C1016.94 439.8 1013.89 429.05 1007.79 421.65C1001.69 414.25 993.192 410.55 982.292 410.55H969.092C968.992 416.95 968.892 423.5 968.792 430.2C968.792 436.8 968.792 443.45 968.792 450.15V455.7ZM940.442 409.8V403.65H984.692C994.292 403.65 1002.74 405.6 1010.04 409.5C1017.34 413.3 1023.04 418.95 1027.14 426.45C1031.24 433.85 1033.29 443 1033.29 453.9C1033.29 464.7 1031.04 473.85 1026.54 481.35C1022.04 488.75 1015.89 494.4 1008.09 498.3C1000.39 502.1 991.642 504 981.842 504H940.442V497.85L954.242 496.2C954.442 489.8 954.542 483.3 954.542 476.7C954.542 470 954.542 463 954.542 455.7V450.15C954.542 443.65 954.542 437.2 954.542 430.8C954.542 424.3 954.442 417.85 954.242 411.45L940.442 409.8ZM1042.39 409.8V403.65H1084.84V409.8L1071.04 411.45C1070.94 417.75 1070.84 424.15 1070.74 430.65C1070.74 437.15 1070.74 443.65 1070.74 450.15V457.5C1070.74 463.9 1070.74 470.35 1070.74 476.85C1070.84 483.25 1070.94 489.7 1071.04 496.2L1084.84 497.85V504H1042.39V497.85L1056.19 496.2C1056.39 489.9 1056.49 483.5 1056.49 477C1056.49 470.5 1056.49 464 1056.49 457.5V450.15C1056.49 443.65 1056.49 437.2 1056.49 430.8C1056.49 424.3 1056.39 417.85 1056.19 411.45L1042.39 409.8ZM1159.56 409.8V403.65H1195.71V409.8L1182.96 411.75V505.05H1177.71L1117.71 423.3V495.75L1133.61 497.85V504H1097.31V497.85L1110.06 496.05V412.8L1108.71 411L1098.06 409.8V403.65H1121.16L1175.31 478.05V411.75L1159.56 409.8ZM1256.43 506.25C1246.43 506.25 1237.63 504 1230.03 499.5C1222.43 494.9 1216.48 488.65 1212.18 480.75C1207.98 472.85 1205.88 463.85 1205.88 453.75C1205.88 443.65 1208.03 434.7 1212.33 426.9C1216.63 419 1222.58 412.8 1230.18 408.3C1237.88 403.7 1246.83 401.4 1257.03 401.4C1263.23 401.4 1268.73 402 1273.53 403.2C1278.43 404.3 1282.98 406.05 1287.18 408.45L1287.78 430.35H1278.48L1275.48 413.25C1270.28 410.35 1264.58 408.9 1258.38 408.9C1251.48 408.9 1245.28 410.65 1239.78 414.15C1234.38 417.65 1230.08 422.75 1226.88 429.45C1223.78 436.05 1222.23 444.15 1222.23 453.75C1222.23 468.05 1225.53 479.1 1232.13 486.9C1238.73 494.7 1247.78 498.6 1259.28 498.6C1264.98 498.6 1270.33 497.6 1275.33 495.6V490.8C1275.33 486.3 1275.28 481.8 1275.18 477.3C1275.18 472.7 1275.13 468.15 1275.03 463.65L1259.43 462.3V456.3H1298.88V462.3L1289.73 463.2C1289.63 467.7 1289.53 472.25 1289.43 476.85C1289.43 481.45 1289.43 486.1 1289.43 490.8V497.4C1284.23 500.1 1278.98 502.25 1273.68 503.85C1268.38 505.45 1262.63 506.25 1256.43 506.25Z"
    fill="#8DC5E9" />
  <defs>
    <filter id="filter0_d_1_19" x="0" y="0" width="554.5" height="552.5"
      filterUnits="userSpaceOnUse" color-interpolation-filters="sRGB">
      <feFlood flood-opacity="0" result="BackgroundImageFix" />
      <feColorMatrix in="SourceAlpha" type="matrix"
        values="0 0 0 0 0 0 0 0 0 0 0 0 0 0 0 0 0 0 127 0" result="hardAlpha" />
      <feOffset dy="4" />
      <feGaussianBlur stdDeviation="2" />
      <feComposite in2="hardAlpha" operator="out" />
      <feColorMatrix type="matrix" values="0 0 0 0 0 0 0 0 0 0 0 0 0 0 0 0 0 0 0.25 0" />
      <feBlend mode="normal" in2="BackgroundImageFix" result="effect1_dropShadow_1_19" />
      <feBlend mode="normal" in="SourceGraphic" in2="effect1_dropShadow_1_19" result="shape" />
    </filter>
  </defs>
</svg>