<svg width="555" height="553" viewBox="0 0 555 553" fill="none" xmlns="http://www.w3.org/2000/svg">
<g filter="url(#filter0_d_1_13)">
<path d="M10 272V6H544.5V538.5H280" stroke="#8DC5E9" stroke-width="12"/>
</g>
<path d="M219.85 282.1C219.85 304 219.85 325.15 219.85 345.55C220.15 365.95 220.45 386.05 220.75 405.85H256.3C291.1 405.85 317.8 394.6 336.4 372.1C355 349.3 364.3 317.5 364.3 276.7C364.3 234.4 355.15 202.15 336.85 179.95C318.55 157.75 293.05 146.65 260.35 146.65H220.75C220.45 165.85 220.15 185.5 219.85 205.6C219.85 225.4 219.85 245.35 219.85 265.45V282.1ZM134.8 144.4V125.95H267.55C296.35 125.95 321.7 131.8 343.6 143.5C365.5 154.9 382.6 171.85 394.9 194.35C407.2 216.55 413.35 244 413.35 276.7C413.35 309.1 406.6 336.55 393.1 359.05C379.6 381.25 361.15 398.2 337.75 409.9C314.65 421.3 288.4 427 259 427H134.8V408.55L176.2 403.6C176.8 384.4 177.1 364.9 177.1 345.1C177.1 325 177.1 304 177.1 282.1V265.45C177.1 245.95 177.1 226.6 177.1 207.4C177.1 187.9 176.8 168.55 176.2 149.35L134.8 144.4Z" fill="#8DC5E9"/>
<defs>
<filter id="filter0_d_1_13" x="0" y="0" width="554.5" height="552.5" filterUnits="userSpaceOnUse" color-interpolation-filters="sRGB">
<feFlood flood-opacity="0" result="BackgroundImageFix"/>
<feColorMatrix in="SourceAlpha" type="matrix" values="0 0 0 0 0 0 0 0 0 0 0 0 0 0 0 0 0 0 127 0" result="hardAlpha"/>
<feOffset dy="4"/>
<feGaussianBlur stdDeviation="2"/>
<feComposite in2="hardAlpha" operator="out"/>
<feColorMatrix type="matrix" values="0 0 0 0 0 0 0 0 0 0 0 0 0 0 0 0 0 0 0.25 0"/>
<feBlend mode="normal" in2="BackgroundImageFix" result="effect1_dropShadow_1_13"/>
<feBlend mode="normal" in="SourceGraphic" in2="effect1_dropShadow_1_13" result="shape"/>
</filter>
</defs>
</svg>
